if (_typeface_js && _typeface_js.loadFace) _typeface_js.loadFace({"glyphs":{"S":{"x_min":54.265625,"x_max":599.546875,"ha":648,"o":"m 54 234 q 58 303 54 271 q 71 371 63 335 l 208 371 l 208 315 q 213 232 208 268 q 232 171 219 196 q 268 134 246 147 q 322 122 290 122 q 398 149 372 122 q 425 229 425 177 q 421 279 425 257 q 408 324 417 302 q 383 372 399 347 q 343 427 368 396 l 160 644 q 85 770 111 707 q 59 906 59 834 q 76 1011 59 963 q 128 1094 94 1060 q 212 1149 162 1129 q 325 1168 262 1168 q 453 1146 402 1168 q 535 1089 504 1125 q 578 1010 565 1054 q 590 923 590 967 q 584 854 590 885 q 571 784 579 822 l 436 784 l 436 839 q 409 981 436 931 q 323 1030 383 1030 q 249 1002 274 1030 q 225 929 225 975 q 228 885 225 904 q 239 848 232 865 q 257 816 246 832 q 280 784 267 800 l 484 537 q 569 397 539 464 q 599 256 599 330 q 580 145 599 194 q 524 61 560 95 q 438 7 489 26 q 323 -10 387 -10 q 192 10 244 -10 q 110 65 141 31 q 66 144 79 100 q 54 234 54 188 "},"\u0000":{"x_min":0,"x_max":0,"ha":0},"/":{"x_min":6.78125,"x_max":367.59375,"ha":374,"o":"m 219 1277 l 367 1277 l 155 -221 l 6 -221 l 219 1277 "},"K":{"x_min":99.015625,"x_max":680.9375,"ha":682,"o":"m 99 1158 l 274 1158 l 274 652 l 280 652 l 480 1158 l 655 1158 l 432 615 l 680 0 l 493 0 l 280 551 l 274 551 l 274 0 l 99 0 l 99 1158 "},"7":{"x_min":27.8125,"x_max":556.828125,"ha":575,"o":"m 368 1003 l 27 1003 l 27 1159 l 556 1159 l 556 1066 l 238 0 l 47 0 l 368 1003 "},"d":{"x_min":66.46875,"x_max":581.921875,"ha":670,"o":"m 267 -10 q 230 -7 251 -10 q 187 6 209 -4 q 143 38 164 16 q 104 98 121 60 q 76 191 87 135 q 66 326 66 246 l 66 622 q 77 755 66 701 q 107 845 88 809 q 148 901 125 881 q 193 930 170 921 q 237 942 216 940 q 271 944 257 944 q 318 937 296 944 q 359 919 341 930 q 392 894 377 908 q 415 866 406 880 l 416 866 l 411 984 l 411 1233 l 581 1233 l 581 0 l 448 0 l 433 86 q 406 50 421 68 q 371 19 392 33 q 325 -2 351 5 q 267 -10 299 -10 m 325 122 q 355 127 342 122 q 379 142 368 133 q 397 164 389 151 q 411 189 405 176 l 411 750 q 376 799 398 779 q 324 819 355 819 q 290 812 305 819 q 263 787 274 805 q 245 735 251 768 q 238 650 238 702 l 238 292 q 245 206 238 240 q 263 154 251 173 q 290 129 274 136 q 325 122 306 122 "},",":{"x_min":37.296875,"x_max":279.421875,"ha":347,"o":"m 105 237 l 279 237 l 180 -221 l 37 -221 l 105 237 "},"Y":{"x_min":3.390625,"x_max":647.03125,"ha":650,"o":"m 236 385 l 3 1158 l 180 1158 l 322 604 l 330 604 l 470 1158 l 647 1158 l 412 385 l 412 0 l 236 0 l 236 385 "},"E":{"x_min":99.015625,"x_max":535.125,"ha":563,"o":"m 99 1158 l 528 1158 l 528 1020 l 274 1020 l 274 673 l 470 673 l 470 535 l 274 535 l 274 138 l 535 138 l 535 0 l 99 0 l 99 1158 "},"y":{"x_min":12.203125,"x_max":586.65625,"ha":609,"o":"m 52 -179 q 124 -177 91 -185 q 180 -147 156 -169 q 217 -90 203 -126 q 233 -5 231 -54 l 12 933 l 186 933 l 284 417 l 313 238 l 318 238 l 338 417 l 417 933 l 586 933 l 389 -34 q 357 -151 377 -101 q 307 -235 337 -202 q 237 -285 278 -268 q 142 -301 196 -301 q 52 -284 98 -301 l 52 -179 l 52 -179 "},"\"":{"x_min":139.71875,"x_max":621.59375,"ha":762,"o":"m 139 1272 l 308 1272 l 294 800 l 156 800 l 139 1272 m 452 1272 l 621 1272 l 607 800 l 469 800 l 452 1272 "},"g":{"x_min":66.46875,"x_max":581.921875,"ha":673,"o":"m 227 -63 q 250 -149 227 -124 q 319 -174 272 -174 q 356 -168 338 -174 q 386 -147 373 -162 q 408 -105 400 -132 q 416 -35 416 -78 l 416 111 q 357 60 393 82 q 267 39 320 39 q 230 42 251 39 q 187 56 209 45 q 143 89 164 67 q 104 148 121 111 q 76 241 87 185 q 66 377 66 297 l 66 622 q 76 751 66 698 q 104 840 87 805 q 143 897 121 876 q 188 928 165 917 q 232 941 210 938 q 271 944 254 944 q 331 935 305 944 q 376 911 357 926 q 409 878 396 897 q 432 842 423 860 l 448 934 l 581 934 l 581 37 q 567 -102 581 -40 q 520 -209 552 -165 q 439 -278 488 -254 q 321 -301 389 -301 q 234 -293 275 -301 q 163 -264 193 -285 q 115 -208 132 -244 q 97 -118 97 -172 q 99 -94 97 -108 q 106 -63 101 -80 l 227 -63 m 325 172 q 355 178 342 172 q 379 193 368 183 q 397 214 389 202 q 411 240 405 227 l 411 750 q 376 799 398 779 q 324 819 355 819 q 290 812 305 819 q 263 787 274 805 q 245 735 251 768 q 238 650 238 702 l 238 343 q 245 257 238 290 q 263 205 251 224 q 290 179 274 186 q 325 172 306 172 "},"e":{"x_min":63.75,"x_max":568.34375,"ha":625,"o":"m 313 -10 q 206 12 252 -10 q 128 82 160 34 q 80 203 96 129 q 63 382 63 278 l 63 558 q 76 711 63 647 q 111 817 90 774 q 161 885 132 860 q 219 924 189 910 q 278 941 248 937 q 333 944 307 944 q 421 930 379 944 q 497 883 464 916 q 549 793 529 849 q 568 653 568 737 q 566 595 568 624 q 562 538 564 566 q 555 483 559 510 q 545 434 550 457 l 236 434 l 236 339 q 240 237 236 278 q 256 169 245 195 q 287 133 267 144 q 335 122 306 122 q 366 128 351 122 q 392 149 381 134 q 410 189 403 164 q 417 250 417 214 l 417 280 l 560 280 l 560 244 q 496 50 560 111 q 313 -10 433 -10 m 408 550 q 409 570 408 557 q 410 596 410 582 q 411 622 411 609 q 411 645 411 636 q 389 778 411 737 q 324 819 367 819 q 285 808 302 819 q 257 773 268 798 q 241 708 246 748 q 236 607 236 667 l 236 550 l 408 550 "},"\u0012":{"x_min":0,"x_max":0,"ha":0},"J":{"x_min":8.140625,"x_max":481.53125,"ha":576,"o":"m 238 -10 q 128 9 172 -10 q 57 64 84 29 q 19 146 31 99 q 8 245 8 193 q 12 327 8 282 q 27 419 17 373 l 167 419 l 165 278 q 169 203 165 233 q 182 155 173 173 q 203 129 190 137 q 236 122 217 122 q 264 128 251 122 q 285 149 276 134 q 299 190 294 164 q 303 256 303 217 l 305 1158 l 481 1158 l 481 280 q 461 134 481 191 q 406 45 440 77 q 328 1 372 12 q 238 -10 284 -10 "},"|":{"x_min":167.515625,"x_max":316.734375,"ha":484,"o":"m 167 1277 l 316 1277 l 316 -221 l 167 -221 l 167 1277 "},"^":{"x_min":23.734375,"x_max":626.671875,"ha":650,"o":"m 242 1169 l 400 1169 l 626 187 l 478 187 l 368 723 l 333 950 l 316 950 l 280 723 l 172 187 l 23 187 l 242 1169 "},"q":{"x_min":66.46875,"x_max":581.921875,"ha":670,"o":"m 267 -10 q 230 -7 251 -10 q 187 6 209 -4 q 143 39 164 17 q 104 98 121 61 q 76 191 87 135 q 66 326 66 246 l 66 609 q 76 744 66 688 q 104 836 87 799 q 142 895 120 874 q 184 927 163 916 q 226 941 206 938 q 260 944 246 944 q 320 934 293 944 q 367 909 346 925 q 404 875 388 894 q 432 836 420 855 l 448 933 l 581 933 l 581 -302 l 411 -302 l 411 -53 l 415 60 q 356 10 392 31 q 267 -10 320 -10 m 325 122 q 355 127 342 122 q 379 142 368 133 q 397 164 389 151 q 411 189 405 176 l 411 750 q 376 799 398 779 q 324 819 355 819 q 290 812 305 819 q 263 786 274 805 q 245 734 251 767 q 238 649 238 701 l 238 292 q 245 206 238 240 q 263 154 251 173 q 290 129 274 136 q 325 122 306 122 "},"b":{"x_min":88.171875,"x_max":604.296875,"ha":671,"o":"m 88 1233 l 259 1233 l 259 984 l 254 861 l 255 860 q 281 891 266 876 q 316 918 297 906 q 359 937 335 930 q 410 944 382 944 q 444 941 424 944 q 485 927 464 938 q 528 895 507 916 q 566 836 550 874 q 593 744 583 799 q 604 609 604 688 l 604 326 q 593 191 604 246 q 566 98 583 135 q 527 38 549 60 q 483 6 505 16 q 440 -7 461 -4 q 403 -10 419 -10 q 344 -2 370 -10 q 298 19 318 5 q 263 50 278 33 q 236 86 248 68 l 222 0 l 88 0 l 88 1233 m 259 189 q 272 164 265 176 q 290 142 280 151 q 314 127 301 133 q 345 122 328 122 q 379 129 364 122 q 406 154 395 136 q 424 206 418 173 q 431 292 431 240 l 431 649 q 424 734 431 701 q 407 786 418 767 q 380 812 396 805 q 345 819 364 819 q 293 800 314 819 q 259 756 272 781 l 259 189 "},"D":{"x_min":99.015625,"x_max":661.953125,"ha":720,"o":"m 99 1158 l 281 1158 q 367 1156 322 1158 q 454 1141 411 1153 q 534 1103 496 1129 q 600 1032 571 1078 q 645 917 628 986 q 661 747 661 847 l 661 411 q 645 240 661 310 q 600 125 628 170 q 534 54 571 80 q 454 16 496 29 q 367 2 411 4 q 281 0 322 0 l 99 0 l 99 1158 m 319 122 q 397 134 366 122 q 446 178 428 147 q 471 262 464 208 q 478 396 478 315 l 478 756 q 471 890 478 837 q 446 974 464 944 q 397 1018 428 1005 q 319 1030 366 1030 l 274 1030 l 274 122 l 319 122 "},"z":{"x_min":14.921875,"x_max":461.875,"ha":477,"o":"m 14 85 l 276 803 l 37 803 l 37 933 l 460 933 l 460 848 l 198 130 l 461 130 l 461 0 l 14 0 l 14 85 "},"w":{"x_min":23.734375,"x_max":883.71875,"ha":907,"o":"m 23 933 l 187 933 l 254 427 l 270 238 l 276 238 l 296 427 l 385 933 l 530 933 l 622 427 l 647 238 l 653 238 l 664 427 l 723 933 l 883 933 l 732 0 l 574 0 l 477 519 l 455 662 l 450 662 l 430 519 l 342 0 l 177 0 l 23 933 "},"$":{"x_min":65.78125,"x_max":615.828125,"ha":682,"o":"m 65 234 q 70 303 65 271 q 83 371 74 335 l 219 371 l 219 316 q 248 172 219 221 q 335 122 276 122 q 410 148 385 122 q 435 222 435 173 q 431 262 435 241 q 418 305 427 282 q 394 355 409 328 q 354 412 378 381 l 175 642 q 100 766 127 704 q 73 906 73 829 q 87 1000 73 956 q 129 1078 102 1044 q 197 1133 157 1111 q 287 1163 236 1155 l 287 1318 l 413 1318 l 413 1162 q 506 1128 469 1152 q 567 1071 544 1104 q 600 1000 590 1038 q 610 923 610 961 q 604 854 610 885 q 592 784 599 822 l 456 784 l 456 840 q 427 981 456 932 q 343 1030 398 1030 q 268 1003 293 1030 q 242 929 242 975 q 258 858 242 890 q 300 792 274 826 l 500 533 q 550 462 528 496 q 586 394 571 428 q 608 325 600 360 q 615 249 615 289 q 601 157 615 199 q 561 82 588 115 q 498 28 535 50 q 414 -2 461 6 l 414 -172 l 288 -172 l 288 -8 q 181 21 223 -2 q 112 77 138 44 q 76 151 87 110 q 65 234 65 191 "},"™":{"x_min":27.125,"x_max":993.59375,"ha":1083,"o":"m 465 1169 l 619 1169 l 704 923 l 727 847 l 738 847 l 762 923 l 855 1169 l 993 1169 l 993 592 l 873 592 l 873 650 q 874 744 873 703 q 875 816 874 784 q 878 873 876 849 q 881 918 880 897 q 884 956 883 939 q 887 992 886 974 l 883 992 l 771 676 l 694 676 l 575 992 l 571 992 q 574 956 572 974 q 577 918 575 939 q 580 873 578 897 q 582 816 581 849 q 584 744 583 784 q 585 650 585 703 l 585 592 l 465 592 l 465 1169 m 147 1062 l 27 1062 l 27 1169 l 389 1169 l 389 1062 l 268 1062 l 268 592 l 147 592 l 147 1062 "},"\\":{"x_min":6.78125,"x_max":367.59375,"ha":374,"o":"m 6 1277 l 155 1277 l 367 -221 l 219 -221 l 6 1277 "},"~":{"x_min":85.984375,"x_max":798.4375,"ha":884,"o":"m 88 305 q 95 452 81 393 q 138 545 109 510 q 206 595 166 581 q 290 610 246 610 q 368 594 335 610 q 429 555 402 579 q 476 504 455 531 q 515 453 497 477 q 553 414 534 430 q 594 398 571 398 q 658 447 640 398 q 659 589 675 496 l 789 589 q 794 450 804 510 q 757 350 784 389 q 692 290 731 310 q 610 270 653 270 q 529 286 564 270 q 465 324 493 301 q 415 375 437 347 q 374 425 394 402 q 335 464 354 448 q 294 480 316 480 q 250 467 268 480 q 222 431 232 454 q 210 376 212 408 q 214 305 208 343 l 88 305 l 88 305 "},"-":{"x_min":85.453125,"x_max":590.734375,"ha":676,"o":"m 85 602 l 590 602 l 590 464 l 85 464 l 85 602 "},"Q":{"x_min":73.921875,"x_max":647.703125,"ha":722,"o":"m 290 -3 q 213 25 252 4 q 143 89 174 46 q 93 202 112 132 q 73 377 73 271 l 73 787 q 87 936 73 874 q 124 1041 101 999 q 177 1108 147 1083 q 239 1147 206 1133 q 303 1164 271 1160 q 362 1168 335 1168 q 419 1164 387 1168 q 482 1148 451 1161 q 543 1111 514 1136 q 596 1044 573 1086 q 633 939 619 1001 q 647 787 647 876 l 647 377 q 628 208 647 276 q 579 96 609 140 q 512 30 549 53 q 438 0 475 8 l 438 -10 q 446 -64 438 -44 q 469 -95 454 -84 q 507 -110 484 -107 q 560 -114 530 -114 q 579 -114 569 -114 q 596 -113 588 -114 l 596 -208 q 534 -229 563 -223 q 472 -234 505 -234 q 439 -232 458 -234 q 400 -224 420 -231 q 360 -206 379 -218 q 325 -173 341 -194 q 300 -122 309 -153 q 290 -48 290 -92 l 290 -3 m 362 122 q 407 130 387 122 q 439 161 426 139 q 458 218 451 183 q 464 308 464 254 l 464 835 q 458 928 464 891 q 439 988 451 965 q 407 1020 426 1011 q 362 1030 387 1030 q 316 1020 335 1030 q 283 988 296 1011 q 264 928 270 965 q 257 835 257 891 l 257 308 q 264 218 257 254 q 283 161 270 183 q 316 130 296 139 q 362 122 335 122 "},"M":{"x_min":99.015625,"x_max":878.984375,"ha":978,"o":"m 99 1158 l 328 1158 l 439 710 q 467 568 457 635 q 486 440 477 500 l 492 440 q 512 568 501 500 q 539 710 522 635 l 654 1158 l 878 1158 l 878 0 l 714 0 l 714 383 q 716 552 714 471 q 720 702 718 634 q 727 822 723 770 q 733 905 730 874 l 720 905 l 545 149 l 434 149 l 257 905 l 244 905 q 250 822 247 874 q 257 702 254 770 q 261 552 259 634 q 263 383 263 471 l 263 0 l 99 0 l 99 1158 "},"C":{"x_min":67.140625,"x_max":595.484375,"ha":635,"o":"m 348 -10 q 289 -5 321 -10 q 226 12 258 -1 q 166 53 195 27 q 115 122 137 79 q 80 227 93 164 q 67 377 67 290 l 67 787 q 80 936 67 874 q 116 1041 94 999 q 168 1108 139 1083 q 228 1147 197 1133 q 290 1164 259 1160 q 347 1168 321 1168 q 463 1149 417 1168 q 538 1096 510 1129 q 578 1018 566 1062 q 590 923 590 973 q 586 854 590 885 q 575 784 582 822 l 432 784 l 432 843 q 411 986 432 939 q 349 1034 390 1034 q 307 1024 325 1034 q 276 992 288 1015 q 258 932 264 969 q 251 839 251 895 l 251 310 q 256 220 251 256 q 273 162 261 184 q 303 131 284 141 q 348 122 322 122 q 381 130 365 122 q 408 154 396 138 q 427 197 420 171 q 434 257 434 222 l 434 370 l 595 370 l 595 263 q 531 56 595 123 q 348 -10 467 -9 "},"[":{"x_min":94.265625,"x_max":436.78125,"ha":526,"o":"m 94 1331 l 436 1331 l 436 1201 l 244 1201 l 244 -44 l 436 -44 l 436 -173 l 94 -173 l 94 1331 "},"L":{"x_min":99.015625,"x_max":514.09375,"ha":526,"o":"m 99 1158 l 274 1158 l 274 138 l 514 138 l 514 0 l 99 0 l 99 1158 "},"\u0014":{"x_min":0,"x_max":0,"ha":0},"!":{"x_min":129.546875,"x_max":341.828125,"ha":468,"o":"m 141 1229 l 326 1229 l 305 376 l 164 376 l 141 1229 m 129 120 q 158 222 129 191 q 235 252 186 252 q 314 220 286 252 q 341 120 341 187 q 313 24 341 58 q 234 -9 285 -9 q 158 23 186 -9 q 129 120 129 56 "}," ":{"x_min":0,"x_max":0,"ha":297},"{":{"x_min":51.546875,"x_max":518.84375,"ha":608,"o":"m 192 373 q 185 441 192 414 q 165 485 179 468 q 132 509 151 501 q 86 518 112 516 l 51 520 l 51 641 l 86 643 q 131 652 111 644 q 164 676 151 659 q 185 719 178 693 q 191 787 191 746 l 191 1071 q 209 1190 191 1141 q 258 1272 227 1240 q 330 1317 289 1303 q 417 1332 370 1332 q 465 1327 438 1332 q 518 1314 492 1322 l 518 1209 l 493 1209 q 422 1205 451 1209 q 377 1189 394 1200 q 351 1160 359 1178 q 344 1116 344 1142 l 344 844 q 339 753 344 794 q 321 681 334 713 q 287 626 309 649 q 234 589 266 603 l 234 571 q 286 534 265 557 q 320 479 307 511 q 339 407 333 448 q 344 317 344 366 l 344 42 q 351 -1 344 16 q 377 -30 359 -19 q 422 -46 394 -42 q 493 -51 451 -51 l 518 -51 l 518 -155 q 465 -168 492 -164 q 417 -173 438 -173 q 330 -159 370 -173 q 259 -113 289 -145 q 210 -32 228 -82 q 192 87 192 16 l 192 373 "},"X":{"x_min":22.375,"x_max":614.46875,"ha":637,"o":"m 233 583 l 22 1158 l 210 1158 l 318 788 l 324 788 l 432 1158 l 614 1158 l 402 582 l 614 0 l 433 0 l 323 372 l 311 372 l 197 0 l 22 0 l 233 583 "},"P":{"x_min":99.015625,"x_max":632.109375,"ha":666,"o":"m 99 1158 l 274 1158 q 347 1155 307 1158 q 426 1141 387 1152 q 503 1106 466 1129 q 569 1044 540 1083 q 614 944 597 1004 q 632 799 632 885 l 632 758 q 616 599 632 666 q 573 488 600 533 q 512 416 547 443 q 439 375 477 389 q 363 357 402 361 q 291 352 325 352 l 274 352 l 274 0 l 99 0 l 99 1158 m 283 481 q 363 495 330 481 q 415 538 396 509 q 443 614 434 568 q 451 726 451 661 l 451 830 q 444 920 451 882 q 417 982 436 957 q 365 1018 398 1006 q 283 1030 333 1030 l 274 1030 l 274 481 l 283 481 "},"#":{"x_min":65.109375,"x_max":686.359375,"ha":751,"o":"m 160 261 l 65 261 l 65 384 l 169 384 l 182 548 l 92 548 l 92 672 l 191 672 l 210 928 l 331 928 l 312 672 l 474 672 l 493 928 l 614 928 l 595 672 l 686 672 l 686 548 l 586 548 l 573 384 l 659 384 l 659 261 l 564 261 l 545 0 l 424 0 l 443 261 l 282 261 l 263 0 l 141 0 l 160 261 m 453 384 l 465 548 l 303 548 l 290 384 l 453 384 "},"%":{"x_min":105.796875,"x_max":1172.640625,"ha":1278,"o":"m 324 533 q 247 543 286 533 q 176 586 208 554 q 125 675 145 617 q 105 828 105 733 l 105 900 q 115 1007 105 962 q 141 1084 124 1052 q 179 1136 158 1116 q 225 1166 201 1155 q 275 1181 250 1177 q 325 1185 301 1185 q 373 1181 348 1185 q 422 1167 398 1178 q 468 1137 446 1156 q 506 1085 490 1117 q 532 1008 522 1053 q 541 900 541 963 l 541 828 q 520 677 541 735 q 467 587 499 619 q 397 544 435 555 q 324 533 358 533 m 735 1171 l 858 1171 l 547 0 l 423 0 l 735 1171 m 326 640 q 385 677 368 640 q 402 792 402 714 l 402 924 q 385 1040 402 1003 q 326 1077 368 1077 q 263 1040 281 1077 q 245 924 245 1003 l 245 792 q 263 677 245 714 q 326 640 281 640 m 737 357 q 757 506 737 450 q 810 592 778 562 q 881 632 843 622 q 956 642 920 642 q 1004 638 979 642 q 1053 623 1029 634 q 1099 593 1077 613 q 1137 542 1121 574 q 1163 465 1153 510 q 1172 357 1172 419 l 1172 284 q 1162 176 1172 222 q 1136 97 1152 130 q 1098 44 1119 65 q 1052 10 1076 23 q 1003 -5 1028 -1 q 955 -10 978 -10 q 903 -5 929 -10 q 853 10 877 -1 q 808 42 829 21 q 771 96 786 63 q 746 175 755 128 q 737 284 737 221 l 737 357 m 876 249 q 894 134 876 171 q 956 97 912 97 q 1016 134 999 97 q 1033 249 1033 171 l 1033 381 q 1016 497 1033 459 q 956 534 999 534 q 894 497 912 534 q 876 381 876 459 l 876 249 "},"_":{"x_min":-3.390625,"x_max":940.015625,"ha":937,"o":"m 940 -116 l 940 -227 l -3 -227 l -3 -116 l 940 -116 "},"+":{"x_min":30.515625,"x_max":535.796875,"ha":566,"o":"m 215 468 l 30 468 l 30 601 l 215 601 l 215 813 l 349 813 l 349 601 l 535 601 l 535 468 l 349 468 l 349 249 l 215 249 l 215 468 "},")":{"x_min":82.0625,"x_max":436.78125,"ha":526,"o":"m 82 -56 q 166 -24 128 -56 q 228 73 203 7 q 267 241 254 140 q 281 482 281 343 l 281 680 q 230 1078 281 943 q 82 1214 180 1214 l 82 1331 q 134 1328 106 1331 q 192 1316 163 1325 q 251 1287 222 1306 q 308 1235 281 1268 q 359 1151 335 1201 q 399 1030 382 1102 q 426 865 417 959 q 436 649 436 771 l 436 515 q 426 295 436 390 q 399 127 417 199 q 359 5 382 55 q 308 -78 335 -44 q 251 -131 281 -111 q 192 -160 222 -150 q 134 -171 163 -169 q 82 -174 106 -174 l 82 -56 l 82 -56 "},"'":{"x_min":139.71875,"x_max":308.59375,"ha":448,"o":"m 139 1272 l 308 1272 l 294 800 l 156 800 l 139 1272 "},"}":{"x_min":88.84375,"x_max":556.140625,"ha":608,"o":"m 114 -51 q 184 -46 155 -51 q 230 -30 212 -42 q 255 -1 248 -19 q 263 42 263 16 l 263 317 q 268 407 263 366 q 286 479 274 448 q 320 534 299 511 q 372 571 341 557 l 372 589 q 319 626 340 603 q 285 681 298 649 q 268 753 273 713 q 263 844 263 794 l 263 1116 q 255 1160 263 1142 q 230 1189 248 1178 q 184 1205 212 1200 q 114 1209 155 1209 l 88 1209 l 88 1314 q 141 1327 115 1322 q 190 1332 168 1332 q 277 1317 236 1332 q 348 1272 318 1303 q 397 1190 379 1240 q 415 1071 415 1141 l 415 787 q 422 719 415 746 q 442 676 429 693 q 476 652 456 659 q 521 643 495 644 l 556 641 l 556 520 l 520 518 q 475 509 495 516 q 442 485 455 501 q 421 441 428 468 q 415 373 415 414 l 415 87 q 397 -32 415 16 q 348 -113 379 -82 q 277 -159 318 -145 q 190 -173 236 -173 q 141 -168 168 -173 q 88 -155 115 -164 l 88 -51 l 114 -51 "},"a":{"x_min":36.625,"x_max":537.15625,"ha":627,"o":"m 217 -10 q 140 7 173 -10 q 83 54 106 24 q 48 125 60 84 q 36 214 36 166 q 50 316 36 271 q 92 397 65 361 q 160 462 120 433 q 255 518 201 492 q 313 544 280 531 q 370 567 345 558 l 370 691 q 368 741 370 718 q 358 782 366 765 q 335 809 350 799 q 292 819 319 819 q 256 812 274 819 q 226 789 239 805 q 205 746 212 773 q 197 678 197 718 l 197 638 l 66 638 q 57 686 60 664 q 54 730 54 708 q 72 822 54 782 q 122 889 90 862 q 199 930 154 916 q 297 944 244 944 q 413 929 367 944 q 487 883 459 914 q 525 807 514 853 q 537 699 537 760 l 537 0 l 409 0 l 397 80 q 323 14 369 40 q 217 -10 276 -10 m 293 122 q 335 133 314 122 q 370 160 356 144 l 370 453 q 339 440 356 447 q 303 420 322 432 q 267 392 284 408 q 235 354 249 376 q 213 303 221 331 q 204 240 204 275 q 225 154 204 187 q 293 122 246 122 "},"T":{"x_min":19.671875,"x_max":567.671875,"ha":587,"o":"m 206 1020 l 19 1020 l 19 1158 l 567 1158 l 567 1020 l 381 1020 l 381 0 l 206 0 l 206 1020 "},"=":{"x_min":58.328125,"x_max":562.921875,"ha":621,"o":"m 58 739 l 562 739 l 562 607 l 58 607 l 58 739 m 58 463 l 562 463 l 562 330 l 58 330 l 58 463 "},"N":{"x_min":99.015625,"x_max":665.34375,"ha":764,"o":"m 99 1158 l 241 1158 l 522 383 l 526 383 q 520 443 524 410 q 514 519 517 476 q 510 615 512 561 q 507 735 507 668 l 507 1158 l 665 1158 l 665 0 l 521 0 l 242 754 l 236 754 q 242 688 238 724 q 248 604 245 653 q 252 492 250 556 q 255 340 255 428 l 255 0 l 99 0 l 99 1158 "},"":{"x_min":0,"x_max":0,"ha":0},"\u0011":{"x_min":0,"x_max":0,"ha":0},"2":{"x_min":69.171875,"x_max":623.96875,"ha":673,"o":"m 69 103 l 324 595 q 382 712 360 662 q 416 800 404 763 q 434 866 429 838 q 438 916 438 893 q 432 975 438 951 q 413 1014 425 999 q 382 1034 400 1028 q 339 1041 363 1041 q 252 991 279 1041 q 225 850 225 942 l 225 784 l 90 784 q 77 854 82 822 q 71 923 71 885 q 87 1010 71 967 q 134 1089 102 1054 q 218 1146 167 1125 q 339 1168 268 1168 q 468 1150 415 1168 q 557 1099 522 1133 q 608 1016 592 1065 q 623 906 623 967 q 617 836 623 870 q 596 763 611 802 q 557 678 581 724 q 499 572 533 632 l 270 138 l 609 138 l 609 0 l 69 0 l 69 103 "},"j":{"x_min":-4.75,"x_max":284.171875,"ha":353,"o":"m 179 1067 q 104 1096 132 1067 q 77 1179 77 1124 q 84 1230 77 1209 q 104 1263 91 1251 q 137 1282 118 1276 q 180 1287 155 1287 q 257 1262 231 1287 q 284 1179 284 1236 q 257 1097 284 1126 q 179 1067 230 1067 m 90 933 l 262 933 l 262 -56 q 247 -181 262 -133 q 206 -255 231 -228 q 147 -291 180 -282 q 78 -301 113 -301 q 36 -297 57 -301 q -4 -284 15 -294 l -4 -185 q 6 -186 0 -185 q 16 -186 11 -186 q 45 -181 31 -186 q 69 -163 59 -175 q 85 -129 79 -150 q 90 -78 90 -109 l 90 933 "},"Z":{"x_min":26.453125,"x_max":567,"ha":587,"o":"m 26 92 l 369 1020 l 78 1020 l 78 1158 l 567 1158 l 567 1065 l 223 138 l 546 138 l 546 0 l 26 0 l 26 92 "},"\t":{"x_min":0,"x_max":0,"ha":0},"":{"x_min":77.3125,"x_max":282.8125,"ha":360,"o":"m 282 -15 l 209 -309 l 77 -309 l 119 -15 l 282 -15 "},"u":{"x_min":89.53125,"x_max":601.578125,"ha":692,"o":"m 89 933 l 261 933 l 261 231 q 280 146 261 170 q 335 122 299 122 q 385 136 361 122 q 430 177 410 150 l 430 933 l 601 933 l 601 0 l 470 0 l 453 99 l 453 99 q 409 46 432 67 q 362 12 387 25 q 311 -5 337 0 q 260 -10 286 -10 q 133 46 178 -10 q 89 218 89 103 l 89 933 "},"1":{"x_min":17.640625,"x_max":545.296875,"ha":563,"o":"m 103 132 l 237 132 l 237 922 l 93 795 l 17 884 l 280 1158 l 411 1158 l 411 1157 l 411 1157 l 411 132 l 545 132 l 545 0 l 103 0 l 103 132 "},"k":{"x_min":90.875,"x_max":639.5625,"ha":639,"o":"m 90 1233 l 262 1233 l 262 523 l 267 523 l 455 933 l 619 933 l 412 506 l 639 0 l 464 0 l 267 463 l 262 463 l 262 0 l 90 0 l 90 1233 "},"€":{"x_min":2.71875,"x_max":662.625,"ha":704,"o":"m 2 492 l 107 492 l 107 594 l 2 594 l 2 716 l 107 716 l 107 787 q 121 936 107 874 q 159 1041 135 999 q 212 1108 182 1083 q 275 1147 242 1133 q 341 1164 308 1160 q 401 1168 373 1168 q 516 1150 470 1168 q 592 1102 563 1133 q 634 1029 621 1070 q 647 940 647 987 q 645 897 647 915 q 641 865 643 880 q 635 837 638 851 q 628 809 632 824 l 493 809 l 493 853 q 468 989 493 948 q 396 1030 443 1030 q 350 1021 370 1030 q 316 989 330 1011 q 294 929 301 966 q 286 836 286 891 l 286 716 l 505 716 l 485 594 l 286 594 l 286 492 l 467 492 l 446 370 l 286 370 l 286 309 q 294 219 286 255 q 317 162 302 183 q 355 131 333 140 q 408 122 378 122 q 451 130 432 122 q 484 152 470 137 q 506 191 499 168 q 514 248 514 215 l 514 297 l 662 297 l 662 256 q 596 55 662 120 q 408 -10 531 -9 q 345 -5 379 -10 q 278 12 311 -1 q 214 51 245 26 q 160 119 183 77 q 122 223 136 162 q 107 370 107 284 l 2 370 l 2 492 "},"<":{"x_min":30.515625,"x_max":467.296875,"ha":526,"o":"m 30 584 l 467 855 l 467 696 l 185 537 l 185 531 l 467 371 l 467 212 l 30 484 l 30 584 "},"t":{"x_min":35.265625,"x_max":434.734375,"ha":458,"o":"m 107 811 l 35 811 l 35 933 l 122 933 l 157 1176 l 279 1176 l 279 933 l 428 933 l 428 811 l 279 811 l 279 217 q 285 168 279 187 q 301 139 290 149 q 324 125 311 128 q 353 122 338 122 q 397 128 378 122 q 434 145 417 134 l 434 50 q 402 20 419 31 q 366 1 385 8 q 329 -8 348 -5 q 292 -10 310 -10 q 223 -1 256 -10 q 164 34 189 8 q 123 109 138 61 q 107 232 107 156 l 107 811 "},"W":{"x_min":25.09375,"x_max":977.3125,"ha":1003,"o":"m 25 1158 l 193 1158 l 271 458 l 280 295 l 297 295 l 313 478 l 438 1158 l 578 1158 l 697 478 l 711 295 l 729 295 l 737 458 l 808 1158 l 977 1158 l 815 0 l 636 0 l 541 556 l 511 798 l 497 798 l 468 556 l 368 0 l 191 0 l 25 1158 "},"v":{"x_min":10.859375,"x_max":580.5625,"ha":593,"o":"m 10 933 l 181 933 l 271 437 l 294 238 l 299 238 l 325 437 l 415 933 l 580 933 l 367 0 l 221 0 l 10 933 "},">":{"x_min":23.734375,"x_max":460.484375,"ha":526,"o":"m 460 584 l 23 855 l 23 696 l 305 537 l 305 531 l 23 371 l 23 212 l 460 484 l 460 584 "},"s":{"x_min":51.546875,"x_max":515.453125,"ha":562,"o":"m 51 195 q 57 254 51 225 q 68 299 63 282 l 189 299 q 194 214 189 248 q 210 160 199 180 q 241 130 222 139 q 288 122 261 122 q 345 143 327 122 q 362 193 362 165 q 358 222 362 208 q 347 249 354 236 q 328 278 339 263 q 304 309 318 292 l 179 457 q 131 519 154 487 q 91 584 109 550 q 64 654 74 617 q 53 731 53 691 q 72 826 53 786 q 122 892 90 866 q 195 931 153 918 q 282 944 236 944 q 374 932 333 944 q 444 895 415 920 q 489 835 473 871 q 504 750 504 798 q 498 687 504 718 q 487 635 493 657 l 368 635 q 364 716 368 681 q 352 773 361 750 q 327 807 343 796 q 285 819 311 819 q 248 812 263 819 q 224 793 233 805 q 211 767 215 781 q 207 738 207 753 q 223 678 207 706 q 264 617 238 650 l 401 457 q 436 412 416 438 q 473 355 455 386 q 503 286 491 323 q 515 208 515 248 q 499 118 515 158 q 453 49 484 78 q 378 5 423 21 q 277 -10 334 -10 q 189 0 230 -10 q 117 34 147 10 q 69 98 86 59 q 51 195 51 137 "},"B":{"x_min":99.015625,"x_max":656.515625,"ha":710,"o":"m 99 1158 l 276 1158 q 358 1155 316 1158 q 440 1144 400 1152 q 516 1118 480 1135 q 578 1071 552 1100 q 621 999 605 1042 q 637 895 637 956 l 637 839 q 624 754 637 793 q 589 686 611 716 q 539 637 567 657 q 482 611 512 618 l 482 606 q 612 524 569 590 q 656 355 656 458 l 656 296 q 642 186 656 233 q 603 107 628 140 q 543 53 578 74 q 467 20 509 32 q 379 4 426 8 q 283 0 333 0 l 99 0 l 99 1158 m 305 662 q 369 671 340 662 q 419 697 398 679 q 451 744 440 715 q 462 813 462 773 l 462 861 q 454 933 462 902 q 427 986 446 964 q 378 1019 408 1007 q 305 1030 348 1030 l 271 1030 l 271 662 l 305 662 m 321 122 q 385 131 356 122 q 435 159 414 140 q 466 208 455 179 q 478 279 478 238 l 478 369 q 470 441 478 410 q 443 494 461 473 q 394 527 424 516 q 321 538 364 538 l 271 538 l 271 122 l 321 122 "},"\n":{"x_min":0,"x_max":0,"ha":0},"?":{"x_min":75.96875,"x_max":626,"ha":696,"o":"m 265 515 q 267 562 265 542 q 272 600 268 582 q 286 637 277 619 q 309 680 295 656 l 389 806 q 430 893 415 848 q 445 975 445 937 q 438 1026 445 1003 q 417 1066 430 1049 q 383 1091 403 1082 q 339 1100 363 1100 q 258 1051 284 1100 q 232 910 232 1003 l 232 855 l 94 855 q 81 924 86 893 q 75 993 75 956 q 91 1089 75 1045 q 140 1167 107 1134 q 224 1220 173 1201 q 345 1239 275 1239 q 468 1220 415 1239 q 556 1167 520 1201 q 608 1084 591 1132 q 626 975 626 1035 q 619 911 626 942 q 600 849 613 880 q 569 786 588 818 q 523 718 550 754 l 469 645 q 438 600 449 619 q 422 562 427 581 q 416 524 417 544 q 415 475 415 503 l 415 377 l 265 377 l 265 515 m 244 120 q 272 222 244 191 q 349 252 301 252 q 428 220 400 252 q 456 120 456 187 q 428 24 456 58 q 349 -9 400 -9 q 272 23 301 -9 q 244 120 244 56 "},"H":{"x_min":99.015625,"x_max":658.546875,"ha":759,"o":"m 99 1158 l 274 1158 l 274 673 l 482 673 l 482 1158 l 658 1158 l 658 0 l 482 0 l 482 535 l 274 535 l 274 0 l 99 0 l 99 1158 "},"c":{"x_min":63.75,"x_max":540.546875,"ha":591,"o":"m 305 -10 q 125 86 187 -10 q 63 382 63 183 l 63 558 q 76 711 63 647 q 110 817 89 774 q 159 885 132 860 q 216 924 187 910 q 274 941 245 937 q 326 944 302 944 q 413 932 373 944 q 480 894 452 919 q 524 830 509 868 q 540 739 540 791 q 537 683 540 706 q 529 638 534 659 l 392 638 l 392 669 q 375 779 392 739 q 320 819 358 819 q 284 809 299 819 q 258 775 268 799 q 242 712 247 752 q 237 611 237 672 l 237 346 q 241 242 237 285 q 255 173 245 200 q 282 134 265 146 q 324 122 299 122 q 349 128 337 122 q 371 149 362 134 q 386 189 380 164 q 392 250 392 214 l 392 280 l 539 280 l 539 244 q 481 50 539 111 q 305 -10 422 -10 "},"\u0010":{"x_min":0,"x_max":0,"ha":0},"&":{"x_min":37.296875,"x_max":766.390625,"ha":821,"o":"m 37 278 q 56 386 37 335 q 102 480 75 437 q 159 558 129 523 q 212 619 189 593 l 230 638 l 207 680 q 173 747 189 712 q 144 819 157 782 q 124 894 132 856 q 117 971 117 933 q 137 1077 117 1030 q 192 1158 158 1125 q 274 1209 227 1191 q 373 1227 320 1227 q 487 1206 442 1227 q 559 1153 533 1185 q 596 1086 585 1122 q 607 1018 607 1049 q 586 901 607 955 q 536 803 565 847 q 476 724 507 758 q 424 664 445 689 l 409 647 l 584 329 q 602 407 596 366 q 609 491 609 448 q 608 532 609 513 q 606 570 607 552 l 748 570 q 753 532 751 552 q 754 491 754 511 q 729 333 754 410 q 660 191 704 257 l 766 0 l 584 0 l 546 68 q 443 10 497 31 q 333 -10 389 -10 q 213 8 267 -10 q 120 64 159 27 q 59 154 80 101 q 37 278 37 208 m 358 775 q 388 811 371 790 q 421 859 406 832 q 448 918 437 885 q 459 988 459 950 q 452 1033 459 1014 q 433 1064 444 1052 q 405 1083 421 1077 q 373 1089 390 1089 q 341 1083 358 1089 q 310 1064 324 1077 q 287 1027 296 1050 q 278 971 278 1005 q 281 926 278 948 q 293 879 285 904 q 315 826 301 854 q 346 763 328 798 l 358 775 m 211 301 q 220 237 211 269 q 249 179 229 204 q 298 138 268 153 q 370 122 328 122 q 433 135 404 122 q 488 173 463 149 l 295 520 q 233 414 255 470 q 211 301 211 358 "},"I":{"x_min":99.015625,"x_max":274.6875,"ha":374,"o":"m 99 1158 l 274 1158 l 274 0 l 99 0 l 99 1158 "},"G":{"x_min":73.921875,"x_max":647.03125,"ha":710,"o":"m 333 -10 q 285 -6 312 -10 q 229 12 258 -2 q 172 52 200 26 q 123 121 145 78 q 87 227 101 164 q 73 377 73 290 l 73 787 q 88 936 73 874 q 126 1041 102 999 q 180 1108 149 1083 q 244 1147 211 1133 q 310 1164 278 1160 q 370 1168 343 1168 q 490 1149 441 1168 q 568 1096 538 1129 q 612 1018 598 1062 q 625 923 625 973 q 620 854 625 885 q 609 784 616 822 l 468 784 l 468 839 q 366 1030 468 1030 q 318 1020 338 1030 q 284 988 297 1011 q 264 928 270 965 q 257 835 257 891 l 257 310 q 264 220 257 256 q 283 162 270 184 q 317 131 297 141 q 364 122 337 122 q 415 138 394 122 q 449 179 436 153 q 469 242 463 206 q 476 320 476 278 l 476 471 l 385 471 l 385 586 l 647 586 l 647 0 l 530 0 l 511 109 q 435 17 478 45 q 333 -10 392 -10 "},"`":{"x_min":77.3125,"x_max":388.625,"ha":466,"o":"m 77 1252 l 191 1344 l 388 1062 l 303 991 l 77 1252 "},"(":{"x_min":88.84375,"x_max":443.5625,"ha":526,"o":"m 443 -174 q 390 -171 419 -174 q 333 -160 362 -169 q 274 -131 303 -150 q 217 -78 244 -111 q 166 5 189 -44 q 125 127 143 55 q 98 295 108 199 q 88 515 88 390 l 88 649 q 98 865 88 771 q 125 1030 108 959 q 166 1151 143 1102 q 217 1235 189 1201 q 274 1287 244 1268 q 333 1316 303 1306 q 390 1328 362 1325 q 443 1331 419 1331 l 443 1214 q 295 1079 345 1214 q 244 680 244 944 l 244 482 q 258 241 244 343 q 297 73 271 140 q 359 -24 322 7 q 443 -56 396 -56 l 443 -174 "},"U":{"x_min":94.953125,"x_max":647.03125,"ha":742,"o":"m 94 1158 l 271 1158 l 271 309 q 277 219 271 255 q 294 161 282 183 q 325 131 306 140 q 369 122 343 122 q 414 131 395 122 q 446 161 434 140 q 465 219 459 183 q 472 309 472 255 l 472 1158 l 647 1158 l 647 356 q 633 210 647 271 q 597 109 619 150 q 546 45 575 69 q 486 9 517 21 q 425 -6 455 -3 q 369 -10 394 -10 q 314 -6 344 -10 q 253 9 284 -3 q 194 45 223 21 q 143 109 166 69 q 108 210 121 150 q 94 356 94 270 l 94 1158 "},"F":{"x_min":99.015625,"x_max":541.90625,"ha":560,"o":"m 99 1158 l 541 1158 l 541 1020 l 274 1020 l 274 673 l 484 673 l 484 535 l 274 535 l 274 0 l 99 0 l 99 1158 "},"r":{"x_min":88.171875,"x_max":514.09375,"ha":534,"o":"m 88 933 l 213 933 l 228 838 q 294 918 257 891 q 369 944 330 944 q 478 899 443 944 q 514 763 514 853 q 512 735 514 751 q 507 702 510 719 q 500 667 504 685 q 491 636 495 650 l 371 636 l 371 722 q 367 769 371 751 q 358 799 364 788 q 343 814 352 810 q 326 819 335 819 q 288 806 305 819 q 259 769 271 792 l 259 0 l 88 0 l 88 933 "},":":{"x_min":61.71875,"x_max":274,"ha":340,"o":"m 61 780 q 90 883 61 852 q 167 914 118 914 q 246 881 218 914 q 274 780 274 848 q 245 683 274 718 q 166 649 217 649 q 90 682 118 649 q 61 780 61 715 m 61 121 q 90 224 61 193 q 167 255 118 255 q 246 222 218 255 q 274 121 274 189 q 245 24 274 59 q 166 -9 217 -9 q 90 23 118 -9 q 61 121 61 56 "},"x":{"x_min":16.953125,"x_max":594.796875,"ha":612,"o":"m 210 474 l 26 933 l 202 933 l 301 628 l 303 628 l 408 933 l 573 933 l 396 490 l 594 0 l 419 0 l 303 322 l 298 322 l 181 0 l 16 0 l 210 474 "},"*":{"x_min":53.578125,"x_max":657.203125,"ha":711,"o":"m 113 673 l 274 840 l 53 881 l 101 1043 l 304 933 l 273 1171 l 440 1171 l 403 933 l 607 1040 l 657 878 l 432 840 l 592 668 l 456 569 l 353 781 l 248 572 l 113 673 "},"\u001e":{"x_min":0,"x_max":0,"ha":0},"V":{"x_min":12.890625,"x_max":634.8125,"ha":648,"o":"m 12 1158 l 192 1158 l 320 240 l 327 240 l 455 1158 l 634 1158 l 423 0 l 223 0 l 12 1158 "},"h":{"x_min":88.171875,"x_max":603.625,"ha":693,"o":"m 88 1233 l 259 1233 l 259 1013 l 250 853 q 291 897 269 880 q 337 925 314 914 q 384 940 360 935 q 432 944 408 944 q 559 887 514 944 q 603 715 603 830 l 603 0 l 432 0 l 432 709 q 413 795 432 771 q 357 819 394 819 q 305 802 331 819 q 259 754 279 784 l 259 0 l 88 0 l 88 1233 "},"\u001f":{"x_min":0,"x_max":0,"ha":0},"0":{"x_min":71.21875,"x_max":638.890625,"ha":710,"o":"m 71 827 q 85 958 71 903 q 121 1051 99 1013 q 174 1112 144 1089 q 235 1147 204 1135 q 298 1164 267 1160 q 356 1168 330 1168 q 412 1164 381 1168 q 475 1149 443 1161 q 536 1114 506 1137 q 588 1053 565 1091 q 624 960 611 1015 q 638 827 638 904 l 638 337 q 624 206 638 261 q 588 112 611 151 q 535 49 564 73 q 474 12 505 25 q 412 -5 442 0 q 356 -10 381 -10 q 297 -5 329 -10 q 233 12 265 0 q 172 49 202 25 q 120 111 143 73 q 84 206 98 150 q 71 337 71 261 l 71 827 m 250 263 q 277 159 250 191 q 356 126 303 126 q 434 159 408 126 q 460 263 460 191 l 460 891 q 434 1001 460 967 q 356 1036 408 1036 q 277 1001 303 1036 q 250 891 250 967 l 250 263 "},".":{"x_min":61.71875,"x_max":274,"ha":340,"o":"m 61 121 q 90 224 61 193 q 167 255 118 255 q 246 222 218 255 q 274 121 274 189 q 245 24 274 59 q 166 -9 217 -9 q 90 23 118 -9 q 61 121 61 56 "},"\u0013":{"x_min":0,"x_max":0,"ha":0},"@":{"x_min":61.046875,"x_max":1057.34375,"ha":1118,"o":"m 61 640 q 82 856 61 764 q 141 1013 104 948 q 227 1122 178 1079 q 331 1189 276 1165 q 445 1224 387 1214 q 558 1234 503 1234 q 673 1226 614 1234 q 787 1195 732 1218 q 892 1133 843 1173 q 978 1029 941 1093 q 1035 876 1014 966 q 1057 662 1057 786 l 1057 518 q 1048 343 1057 423 q 1016 203 1039 262 q 951 111 992 144 q 844 78 910 78 q 733 109 774 78 q 672 208 691 141 q 608 111 649 145 q 518 78 568 78 q 478 81 500 78 q 434 93 457 83 q 391 124 412 103 q 354 181 370 145 q 327 271 337 217 q 318 402 318 325 l 318 567 q 327 688 318 637 q 351 773 336 738 q 386 829 366 807 q 427 862 406 850 q 469 877 448 873 q 507 881 490 881 q 588 856 554 881 q 642 796 621 832 l 655 870 l 788 870 l 788 305 q 793 255 788 275 q 807 223 798 235 q 827 207 816 212 q 850 202 838 202 q 878 211 865 202 q 902 249 892 221 q 917 331 911 278 q 923 472 923 384 l 923 662 q 905 846 923 770 q 859 972 888 921 q 794 1051 831 1022 q 716 1094 756 1080 q 635 1112 676 1108 q 559 1116 594 1116 q 482 1111 523 1116 q 401 1089 442 1106 q 323 1040 360 1072 q 257 956 286 1009 q 211 826 229 903 q 194 640 194 748 l 194 321 q 212 133 194 210 q 262 3 231 55 q 334 -79 293 -48 q 419 -125 375 -109 q 511 -144 464 -140 q 599 -148 557 -148 q 643 -146 619 -148 q 692 -141 668 -145 q 740 -132 717 -137 q 782 -119 764 -126 l 782 -227 q 744 -245 769 -237 q 689 -259 720 -253 q 625 -269 659 -265 q 560 -273 592 -273 q 463 -265 517 -273 q 354 -235 409 -258 q 245 -170 298 -212 q 152 -59 193 -128 q 86 109 111 9 q 61 347 61 209 l 61 640 m 556 211 q 598 228 582 211 q 626 267 615 244 l 626 689 q 598 732 615 715 q 557 750 581 750 q 528 744 542 750 q 504 720 514 737 q 487 670 493 702 q 480 585 480 638 l 480 370 q 486 289 480 320 q 501 241 491 258 q 525 217 512 223 q 556 211 539 211 "},"f":{"x_min":30.515625,"x_max":427.953125,"ha":418,"o":"m 111 811 l 30 811 l 30 933 l 111 933 l 111 1001 q 126 1124 111 1077 q 169 1199 142 1172 q 234 1235 197 1226 q 314 1245 271 1245 q 341 1243 326 1245 q 372 1239 356 1242 q 401 1232 387 1236 q 427 1222 416 1228 l 427 1101 q 364 1108 399 1108 q 331 1103 347 1108 q 305 1085 316 1098 q 286 1052 293 1072 q 280 1001 280 1031 l 280 933 l 409 933 l 409 811 l 280 811 l 280 0 l 111 0 l 111 811 "},";":{"x_min":37.296875,"x_max":279.421875,"ha":340,"o":"m 61 780 q 90 883 61 852 q 167 914 118 914 q 246 881 218 914 q 274 780 274 848 q 245 683 274 718 q 166 649 217 649 q 90 682 118 649 q 61 780 61 715 m 105 237 l 279 237 l 180 -221 l 37 -221 l 105 237 "},"i":{"x_min":77.3125,"x_max":284.171875,"ha":353,"o":"m 179 1067 q 104 1096 132 1067 q 77 1179 77 1124 q 84 1230 77 1209 q 104 1263 91 1251 q 137 1282 118 1276 q 180 1287 155 1287 q 257 1262 231 1287 q 284 1179 284 1236 q 257 1097 284 1126 q 179 1067 230 1067 m 90 933 l 262 933 l 262 0 l 90 0 l 90 933 "},"6":{"x_min":73.25,"x_max":642.28125,"ha":712,"o":"m 73 819 q 87 956 73 900 q 126 1052 102 1013 q 181 1114 150 1091 q 245 1149 212 1137 q 311 1165 278 1161 q 370 1168 343 1168 q 490 1150 440 1168 q 571 1102 539 1132 q 617 1032 602 1072 q 631 948 631 992 q 627 895 631 924 q 613 838 622 867 l 479 838 l 479 874 q 473 960 479 927 q 453 1012 466 993 q 419 1039 440 1032 q 370 1046 399 1046 q 281 1006 312 1046 q 250 879 250 967 l 250 656 q 318 704 276 685 q 415 723 360 723 q 494 711 454 723 q 568 666 535 698 q 621 578 600 634 q 642 437 642 523 l 642 324 q 622 168 642 231 q 567 64 603 104 q 481 7 531 25 q 367 -10 430 -10 q 241 8 296 -10 q 149 69 187 27 q 92 179 111 111 q 73 343 73 246 l 73 819 m 250 278 q 278 160 250 198 q 365 122 305 122 q 442 159 417 122 q 466 271 466 196 l 466 443 q 459 514 466 485 q 438 559 451 542 q 405 584 424 577 q 362 592 386 592 q 327 586 344 592 q 297 572 311 581 q 271 552 282 563 q 250 529 259 540 l 250 278 "},"A":{"x_min":12.890625,"x_max":642.953125,"ha":656,"o":"m 226 1158 l 428 1158 l 642 0 l 465 0 l 433 207 l 221 207 l 191 0 l 12 0 l 226 1158 m 413 339 l 331 916 l 324 916 l 242 339 l 413 339 "},"n":{"x_min":88.171875,"x_max":602.265625,"ha":692,"o":"m 88 933 l 220 933 l 236 834 l 236 833 q 279 886 256 865 q 328 921 303 908 q 379 939 353 933 q 431 944 405 944 q 557 887 513 944 q 602 715 602 830 l 602 0 l 430 0 l 430 709 q 411 795 430 771 q 356 819 392 819 q 304 802 330 819 q 259 755 279 785 l 259 0 l 88 0 l 88 933 "},"O":{"x_min":67.140625,"x_max":640.921875,"ha":708,"o":"m 355 -10 q 295 -5 327 -10 q 230 12 262 -1 q 169 53 198 27 q 116 122 139 79 q 80 227 94 164 q 67 377 67 290 l 67 787 q 81 936 67 874 q 118 1041 94 999 q 170 1108 141 1083 q 232 1147 200 1133 q 296 1164 264 1160 q 355 1168 328 1168 q 412 1164 381 1168 q 475 1148 444 1161 q 537 1111 507 1136 q 590 1044 567 1086 q 627 939 613 1001 q 640 787 640 876 l 640 377 q 626 228 640 290 q 589 123 612 166 q 536 54 566 80 q 474 13 505 28 q 411 -5 442 0 q 355 -10 380 -10 m 355 122 q 400 130 381 122 q 432 161 419 139 q 451 218 444 183 q 457 308 457 254 l 457 835 q 451 928 457 891 q 432 988 444 965 q 400 1020 419 1011 q 355 1030 381 1030 q 309 1020 328 1030 q 276 988 289 1011 q 257 928 263 965 q 250 835 250 891 l 250 308 q 257 218 250 254 q 276 161 263 183 q 309 130 289 139 q 355 122 328 122 "},"]":{"x_min":88.84375,"x_max":431.34375,"ha":526,"o":"m 281 -44 l 281 1201 l 88 1201 l 88 1331 l 431 1331 l 431 -173 l 88 -173 l 88 -44 l 281 -44 "},"3":{"x_min":65.109375,"x_max":628.71875,"ha":702,"o":"m 67 236 q 71 300 67 265 q 84 372 75 335 l 221 372 l 221 313 q 230 222 221 259 q 255 163 240 185 q 293 131 271 141 q 340 122 314 122 q 385 129 365 122 q 420 152 406 136 q 442 194 434 168 q 449 256 449 219 l 449 384 q 443 449 449 421 q 422 497 436 478 q 385 526 408 516 q 328 537 362 537 l 254 537 l 254 662 l 328 662 q 368 669 349 662 q 402 692 387 676 q 424 733 416 708 q 432 794 432 758 l 432 916 q 407 1010 432 980 q 333 1041 382 1041 q 248 991 278 1041 q 219 850 219 942 l 219 784 l 83 784 q 70 852 75 818 q 65 923 65 885 q 81 1010 65 967 q 130 1089 97 1054 q 213 1146 163 1125 q 333 1168 264 1168 q 459 1151 406 1168 q 546 1101 512 1134 q 595 1021 579 1068 q 611 912 611 973 l 611 841 q 599 753 611 791 q 566 686 586 714 q 521 637 546 657 q 469 605 495 617 l 469 600 q 532 570 503 588 q 582 522 561 551 q 616 451 604 493 q 628 353 628 410 l 628 276 q 605 141 628 196 q 543 53 582 86 q 451 4 503 19 q 340 -10 398 -10 q 137 54 207 -10 q 67 236 67 118 "},"m":{"x_min":88.171875,"x_max":941.375,"ha":1031,"o":"m 88 933 l 221 933 l 236 834 l 236 833 q 279 886 256 865 q 327 921 302 908 q 378 939 352 933 q 430 944 404 944 q 522 918 484 944 q 580 838 560 891 q 623 889 600 869 q 670 922 646 910 q 720 939 695 934 q 771 944 745 944 q 896 887 852 944 q 941 715 941 830 l 941 0 l 769 0 l 769 709 q 765 760 769 739 q 750 794 760 781 q 726 813 741 807 q 690 819 711 819 q 642 802 666 819 q 599 754 619 784 q 600 741 600 748 q 600 729 600 735 l 600 0 l 428 0 l 428 709 q 423 760 428 739 q 409 794 419 781 q 385 813 400 807 q 349 819 370 819 q 302 802 326 819 q 259 755 278 785 l 259 0 l 88 0 l 88 933 "},"9":{"x_min":57.65625,"x_max":626.671875,"ha":705,"o":"m 626 338 q 612 201 626 258 q 574 105 598 144 q 520 43 550 66 q 457 8 490 21 q 393 -6 425 -3 q 335 -10 362 -10 q 212 7 263 -10 q 130 55 162 25 q 83 126 98 86 q 68 210 68 166 q 72 262 68 233 q 86 319 77 290 l 220 319 l 220 294 q 227 208 220 241 q 248 155 233 174 q 284 129 262 136 q 335 122 305 122 q 419 161 389 122 q 448 288 448 201 l 448 501 q 382 454 423 473 q 286 434 341 434 q 206 447 247 434 q 132 492 166 459 q 78 579 99 524 q 57 720 57 634 l 57 833 q 76 989 57 925 q 132 1093 96 1053 q 218 1150 168 1133 q 332 1168 269 1168 q 458 1150 403 1168 q 550 1091 512 1132 q 607 984 588 1051 q 626 821 626 918 l 626 338 m 448 899 q 442 966 448 938 q 421 1010 435 993 q 385 1034 407 1026 q 334 1041 364 1041 q 257 1004 282 1041 q 233 892 233 967 l 233 714 q 240 644 233 672 q 261 598 248 615 q 294 573 275 581 q 337 566 313 566 q 372 571 355 566 q 402 585 388 577 q 428 606 417 594 q 448 629 440 617 l 448 899 "},"l":{"x_min":90.875,"x_max":262.46875,"ha":353,"o":"m 90 1233 l 262 1233 l 262 0 l 90 0 l 90 1233 "},"8":{"x_min":59,"x_max":649.734375,"ha":707,"o":"m 59 352 q 69 442 59 402 q 100 511 80 481 q 145 562 119 541 q 202 599 172 583 l 202 604 q 157 635 180 617 q 116 680 134 653 q 86 743 98 707 q 75 826 75 779 l 75 908 q 88 1005 75 964 q 124 1076 102 1047 q 175 1123 146 1105 q 235 1151 204 1141 q 297 1165 266 1161 q 354 1168 328 1168 q 411 1165 380 1168 q 472 1151 441 1161 q 532 1123 503 1141 q 583 1076 561 1105 q 619 1006 606 1047 q 633 908 633 965 l 633 827 q 621 744 633 780 q 592 681 610 708 q 551 636 573 654 q 505 605 528 617 l 505 600 q 563 563 537 584 q 608 512 589 541 q 638 442 628 482 q 649 352 649 403 l 649 281 q 637 177 649 221 q 603 99 625 132 q 554 46 582 67 q 492 12 525 25 q 424 -5 459 0 q 353 -10 388 -10 q 282 -5 318 -10 q 214 12 247 0 q 153 45 181 24 q 104 99 124 67 q 71 176 83 131 q 59 280 59 221 l 59 352 m 362 661 q 399 668 381 661 q 429 690 416 674 q 449 732 442 706 q 457 798 457 758 l 457 894 q 433 1003 457 966 q 354 1041 408 1041 q 275 1003 299 1041 q 252 893 252 965 l 252 798 q 258 733 252 759 q 277 691 265 707 q 306 668 289 675 q 345 661 324 661 l 362 661 m 237 266 q 247 194 237 222 q 272 150 257 166 q 309 128 288 134 q 353 122 330 122 q 397 128 375 122 q 434 150 418 134 q 461 194 451 166 q 471 267 471 223 l 471 394 q 463 459 471 432 q 441 503 455 486 q 406 528 427 520 q 362 536 386 536 l 345 536 q 266 502 295 536 q 237 394 237 467 l 237 266 "},"p":{"x_min":88.171875,"x_max":604.96875,"ha":671,"o":"m 259 -52 l 259 -301 l 88 -301 l 88 933 l 222 933 l 238 835 q 265 874 249 854 q 302 909 281 893 q 350 934 324 924 q 411 944 377 944 q 445 941 425 944 q 486 927 465 938 q 529 895 507 916 q 567 836 550 874 q 594 744 583 799 q 604 609 604 688 l 604 326 q 594 191 604 246 q 566 98 583 135 q 528 39 550 61 q 484 6 506 17 q 440 -7 461 -4 q 404 -10 419 -10 q 313 10 349 -10 q 254 61 277 31 l 259 -52 m 259 190 q 272 164 265 177 q 291 143 280 152 q 315 127 301 133 q 345 122 328 122 q 380 129 364 122 q 407 154 396 136 q 425 206 419 173 q 432 292 432 240 l 432 649 q 425 734 432 701 q 407 786 419 767 q 381 812 396 805 q 346 819 365 819 q 293 799 314 819 q 259 754 272 780 l 259 190 "},"4":{"x_min":54.9375,"x_max":709.421875,"ha":746,"o":"m 54 299 l 392 1158 l 602 1158 l 602 345 l 709 345 l 709 207 l 602 207 l 602 0 l 438 0 l 438 207 l 54 207 l 54 299 m 438 345 l 438 516 l 455 952 l 434 952 l 233 345 l 438 345 "},"R":{"x_min":99.015625,"x_max":676.859375,"ha":711,"o":"m 99 1158 l 289 1158 q 361 1155 322 1158 q 439 1142 400 1152 q 514 1110 478 1131 q 578 1053 550 1089 q 623 961 607 1016 q 640 827 640 906 l 640 798 q 602 582 640 666 q 491 463 564 499 l 676 0 l 491 0 l 337 433 l 271 433 l 271 0 l 99 0 l 99 1158 m 297 560 q 375 570 343 560 q 427 604 407 580 q 455 668 446 628 q 464 766 464 708 l 464 857 q 456 935 464 902 q 428 988 448 967 q 377 1020 409 1009 q 297 1030 345 1030 l 271 1030 l 271 560 l 297 560 "},"\r":{"x_min":0,"x_max":0,"ha":0},"o":{"x_min":63.75,"x_max":580.5625,"ha":644,"o":"m 323 -10 q 262 -5 293 -10 q 203 14 231 0 q 148 56 174 29 q 104 130 123 84 q 74 242 85 175 q 63 400 63 308 l 63 547 q 74 702 63 638 q 105 811 86 767 q 150 882 124 855 q 205 922 176 908 q 264 940 233 935 q 324 944 295 944 q 381 940 352 944 q 440 923 411 936 q 494 884 468 910 q 538 813 519 857 q 569 704 558 769 q 580 547 580 638 l 580 400 q 569 244 580 309 q 537 132 557 178 q 492 59 518 87 q 438 15 466 31 q 380 -5 409 0 q 323 -10 350 -10 m 324 122 q 363 133 347 122 q 389 172 379 145 q 403 244 399 200 q 408 354 408 288 l 408 584 q 403 695 408 650 q 389 767 399 739 q 363 807 379 794 q 324 819 347 819 q 283 807 300 819 q 256 767 267 794 q 240 695 245 739 q 236 584 236 650 l 236 354 q 240 244 236 288 q 256 172 245 200 q 283 133 267 145 q 324 122 300 122 "},"5":{"x_min":85.453125,"x_max":625.328125,"ha":699,"o":"m 85 238 q 102 372 85 299 l 239 372 l 239 277 q 263 158 239 194 q 342 122 287 122 q 421 162 398 122 q 444 277 444 202 l 444 501 q 436 571 444 544 q 416 613 429 598 q 386 634 403 628 q 348 639 368 639 q 283 618 310 639 q 238 567 256 596 l 109 567 l 109 1158 l 607 1158 l 607 1003 l 255 1003 l 255 716 q 327 767 284 749 q 417 786 370 786 q 575 713 524 786 q 625 499 625 640 l 625 303 q 602 153 625 213 q 541 57 579 93 q 453 5 503 21 q 350 -10 403 -10 q 236 7 286 -10 q 153 56 187 24 q 102 135 120 89 q 85 238 85 181 "}}}
